<?xml version="1.0" standalone="no"?><!DOCTYPE svg PUBLIC "-//W3C//DTD SVG 1.1//EN" "http://www.w3.org/Graphics/SVG/1.1/DTD/svg11.dtd"><svg t="1715586229643" class="icon" viewBox="0 0 1024 1024" version="1.1" xmlns="http://www.w3.org/2000/svg" p-id="1467" xmlns:xlink="http://www.w3.org/1999/xlink" width="200" height="200"><path d="M576 298.666667c12.8 0 21.333333 4.266667 29.866667 12.8 17.066667 17.066667 17.066667 42.666667 0 59.733333L465.066667 512l140.8 140.8c17.066667 17.066667 17.066667 42.666667 0 59.733333s-42.666667 17.066667-59.733334 0l-170.666666-170.666666c-17.066667-17.066667-17.066667-42.666667 0-59.733334l170.666666-170.666666c8.533333-8.533333 17.066667-12.8 29.866667-12.8z" p-id="1468" fill="#1e1f26"></path><path d="M512 1024c-136.533333 0-264.533333-51.2-362.666667-149.333333S0 648.533333 0 512s51.2-264.533333 149.333333-362.666667S375.466667 0 512 0s264.533333 51.2 362.666667 149.333333S1024 375.466667 1024 512s-51.2 264.533333-149.333333 362.666667S648.533333 1024 512 1024z m0-938.666667C396.8 85.333333 290.133333 128 209.066667 209.066667 128 290.133333 85.333333 396.8 85.333333 512s42.666667 221.866667 123.733334 302.933333S396.8 938.666667 512 938.666667s221.866667-42.666667 302.933333-123.733334S938.666667 627.2 938.666667 512s-42.666667-221.866667-123.733334-302.933333C733.866667 128 627.2 85.333333 512 85.333333z" p-id="1469" fill="#1e1f26"></path></svg>