<?xml version="1.0" standalone="no"?><!DOCTYPE svg PUBLIC "-//W3C//DTD SVG 1.1//EN" "http://www.w3.org/Graphics/SVG/1.1/DTD/svg11.dtd"><svg t="1715736598451" class="icon" viewBox="0 0 1024 1024" version="1.1" xmlns="http://www.w3.org/2000/svg" p-id="1579" xmlns:xlink="http://www.w3.org/1999/xlink" width="200" height="200"><path d="M853.32992 102.4H477.87008C440.33024 102.4 409.6 133.09952 409.6 170.67008V409.6H170.67008C133.13024 409.6 102.4 440.34048 102.4 477.87008v375.47008C102.4 890.88 133.13024 921.6 170.67008 921.6h375.45984C583.66976 921.6 614.4 890.88 614.4 853.34016V614.4h238.92992C890.86976 614.4 921.6 583.66976 921.6 546.14016V170.67008C921.6 133.09952 890.86976 102.4 853.32992 102.4z m-307.2 750.94016H170.67008V477.87008H409.6v68.27008C409.6 583.66976 440.33024 614.4 477.87008 614.4h68.25984v238.94016z m307.2-307.2H477.87008V170.67008h375.45984v375.47008z" p-id="1580" fill="#74829a"></path></svg>