<?xml version="1.0" standalone="no"?><!DOCTYPE svg PUBLIC "-//W3C//DTD SVG 1.1//EN" "http://www.w3.org/Graphics/SVG/1.1/DTD/svg11.dtd"><svg t="1715668016466" class="icon" viewBox="0 0 1024 1024" version="1.1" xmlns="http://www.w3.org/2000/svg" p-id="4286" xmlns:xlink="http://www.w3.org/1999/xlink" width="200" height="200"><path d="M896 960l-211.2-224c-64 51.2-160 96-249.6 96C230.4 832 64 659.2 64 448s166.4-384 377.6-384c204.8 0 377.6 172.8 377.6 384 0 83.2-25.6 160-70.4 224l217.6 217.6L896 960zM441.6 147.2C275.2 147.2 140.8 281.6 140.8 448s134.4 300.8 294.4 300.8c166.4 0 294.4-134.4 294.4-300.8s-128-300.8-288-300.8z" fill="#c7c9d3" p-id="4287"></path></svg>