<?xml version="1.0" standalone="no"?><!DOCTYPE svg PUBLIC "-//W3C//DTD SVG 1.1//EN" "http://www.w3.org/Graphics/SVG/1.1/DTD/svg11.dtd"><svg t="1715758533856" class="icon" viewBox="0 0 1024 1024" version="1.1" xmlns="http://www.w3.org/2000/svg" p-id="3579" xmlns:xlink="http://www.w3.org/1999/xlink" width="200" height="200"><path d="M0 512a512 512 0 1 0 1024 0A512 512 0 0 0 0 512z m960 0a448 448 0 0 1-448 448 448 448 0 1 1 448-448zM238.912 380.608a31.808 31.808 0 0 0 0 45.184l244.928 245.056c7.744 7.68 18.24 10.048 28.16 8.32 9.92 1.728 20.48-0.704 28.16-8.32l245.056-245.056a32 32 0 1 0-45.312-45.184L512 608.448l-227.84-227.84a31.936 31.936 0 0 0-45.248 0z" fill="#ffffff" p-id="3580"></path></svg>