<?xml version="1.0" standalone="no"?><!DOCTYPE svg PUBLIC "-//W3C//DTD SVG 1.1//EN" "http://www.w3.org/Graphics/SVG/1.1/DTD/svg11.dtd"><svg t="1715741809377" class="icon" viewBox="0 0 1024 1024" version="1.1" xmlns="http://www.w3.org/2000/svg" p-id="3226" xmlns:xlink="http://www.w3.org/1999/xlink" width="200" height="200"><path d="M162.011025 457.808159c-5.644983-4.515987-5.644983-15.241455 0-19.192944L372.568908 314.425579 372.568908 250.637266c-1.128997-7.338479-9.596472-9.031974-15.241455-6.209482L16.93495 436.357222c-5.644983 4.515987-5.644983 15.241455 0 19.192944l338.699008 193.058434c3.951488 2.257993 15.805954 2.257993 16.93495-7.902977l0-52.498346L162.011025 457.808159z" fill="#74829a" p-id="3227"></path><path d="M600.62624 541.353914c-7.902977 0-15.805954 0.564498-23.144432 0.564498l-0.564498 106.690187c-1.693495 12.418964-12.418964 10.16097-16.93495 6.209482l-338.699008-197.574421c-7.338479-3.951488-6.209482-15.805954 0-19.192944l340.392503-187.977949c5.080485-5.080485 16.93495-6.209482 16.93495 6.209482l-0.564498 107.819184c222.976847 5.080485 404.745314 229.186329 422.244763 448.211687C937.067255 653.124587 782.394708 541.353914 600.62624 541.353914z" fill="#74829a" p-id="3228"></path></svg>