<?xml version="1.0" standalone="no"?><!DOCTYPE svg PUBLIC "-//W3C//DTD SVG 1.1//EN" "http://www.w3.org/Graphics/SVG/1.1/DTD/svg11.dtd"><svg t="1715758037524" class="icon" viewBox="0 0 1024 1024" version="1.1" xmlns="http://www.w3.org/2000/svg" p-id="1695" xmlns:xlink="http://www.w3.org/1999/xlink" width="200" height="200"><path d="M512.9 512.9l-1.8-1.8 1.8 1.8zM513.1 510.9l-2.2 2.2c0.8-0.7 1.5-1.4 2.2-2.2z" fill="#ffffff" p-id="1696"></path><path d="M960.5 512c0 60.5-11.9 119.3-35.3 174.6-22.6 53.4-54.9 101.4-96.1 142.5-41.2 41.2-89.1 73.5-142.6 96.1-55.3 23.4-114.1 35.3-174.6 35.3s-119.3-11.9-174.6-35.3C284 902.6 236 870.3 194.9 829.1 153.7 788 121.4 740 98.8 686.6 75.4 631.3 63.5 572.5 63.5 512s11.9-119.3 35.3-174.6c22.6-53.4 54.9-101.4 96.1-142.6 41.2-41.2 89.1-73.5 142.6-96.1 55.2-23.3 114-35.2 174.5-35.2s119.3 11.9 174.6 35.3c53.4 22.6 101.4 54.9 142.6 96.1 41.2 41.2 73.5 89.1 96.1 142.6 23.3 55.2 35.2 114 35.2 174.5z m-832 0c0 211.5 172 383.5 383.5 383.5s383.5-172 383.5-383.5-172-383.5-383.5-383.5-383.5 172-383.5 383.5z" fill="#ffffff" p-id="1697"></path><path d="M511.1 511.1l1.8 1.8-1.8-1.8zM510.9 513.1l2.2-2.2c-0.8 0.7-1.5 1.4-2.2 2.2z" fill="#ffffff" p-id="1698"></path><path d="M511.9 385.9c-8.3 0-15.8 3.1-21.5 8.3l-2.2 2.2-21.5 21.5L301 583.6c-12.4 12.4-12.4 32.8 0 45.3 12.4 12.4 32.8 12.4 45.3 0L512 463.1l165.8 165.7c12.4 12.4 32.8 12.4 45.3 0 12.4-12.4 12.4-32.8-0.1-45.2L557.3 417.9l-21.8-21.8-1.8-1.8c-5.7-5.3-13.4-8.5-21.8-8.4z" fill="#ffffff" p-id="1699"></path></svg>